PathFileType	4	(X/Y/Z)	OpenSim_Sub08_EMGBaseline_Gyro.trc
DataRate	CameraRate	NumFrames	NumMarkers	Units	OrigDataRate	OrigDataStartFrame	OrigNumFrames
100	100	34	8	m	100	4991	6654
Frame#	Time	torso_imu_offset_imu	pelvis_imu_offset_imu	tibia_r_imu_offset_imu	femur_r_imu_offset_imu	tibia_l_imu_offset_imu	femur_l_imu_offset_imu	toes_r_imu_offset_imu	toes_l_imu_offset_imu
				X1	Y1	Z1	X2	Y2	Z2	X3	Y3	Z3	X4	Y4	Z4	X5	Y5	Z5	X6	Y6	Z6	X7	Y7	Z7	X8		Y8	Z8	

4991	49.90000000	-0.91070412	-0.63783023	0.06126731	-0.38050405	-0.30104142	-0.06466734	0.04630911	-0.34392242	-0.26005682	-1.09736645	-0.45863702	2.43962361	-0.71595481	-0.38882316	0.92872975	-1.96383812	-0.50889078	0.04855055	-5.26144362	3.87083859	-1.61397251	-0.36972907	-0.15370886	0.38217901
4992	49.91000000	-0.92603943	-0.64432852	0.09010697	-0.43235871	-0.22045820	0.05018665	-0.80874683	-0.77402344	0.03727850	-0.87796262	-0.50660125	2.22149390	-0.84292314	-0.34895336	0.82384703	-1.08561241	-0.55028032	0.27761108	-1.92777488	4.56205795	-1.28389349	-0.33671516	-0.13103231	0.40000645
4993	49.92000000	-0.93412210	-0.61689158	0.06073740	-0.55080071	-0.13663379	0.12750625	-2.45006782	-0.79142065	0.66107265	-0.67874057	-0.54376602	2.00137245	-0.78133915	-0.37191565	0.80985142	-0.19946732	-0.56028716	0.47695540	0.48630606	4.50002023	-1.01655970	-0.36760069	-0.10258523	0.40244686
4994	49.93000000	-0.94233586	-0.54412578	0.02569984	-0.66814321	-0.06863798	0.15924327	-3.59565754	-0.44873666	1.38771197	-0.41259172	-0.56521048	1.85934640	-0.54166273	-0.33672652	0.85099028	0.39589757	-0.55419752	0.58756176	1.29055063	4.21049293	-0.45471177	-0.28544611	-0.07891339	0.35000578
4995	49.94000000	-0.96204480	-0.45683485	-0.00611686	-0.74361144	-0.00311821	0.17250968	-3.90795082	-0.10726104	1.99876929	-0.08312534	-0.60565966	1.76548876	-0.16955018	-0.31844677	0.86251298	0.64442052	-0.51957955	0.58958586	1.90047347	4.21467656	0.25467851	-0.25257613	-0.06666638	0.22397802
4996	49.95000000	-0.98409451	-0.38516156	-0.02250543	-0.78291994	0.05162754	0.18831965	-3.81826346	0.07525590	2.45294475	0.25165389	-0.65307449	1.72453411	0.34479146	-0.35895159	0.87237312	0.63735452	-0.43316981	0.49688683	0.62731701	4.16934135	1.19925489	-0.11306783	-0.07561241	0.11376475
4997	49.96000000	-0.99840712	-0.32369065	-0.07361177	-0.77657870	0.06348099	0.20869801	-3.33451893	0.06752638	2.78644388	0.55686287	-0.67700803	1.69086340	0.82579182	-0.34685858	0.90756508	0.53313959	-0.33142700	0.38444644	-0.64099559	4.35382138	2.08183682	0.01853840	-0.09568784	0.02948147
4998	49.97000000	-0.99423501	-0.26308660	-0.14755797	-0.72285549	0.03376429	0.23790074	-2.45242628	-0.03469774	3.04921780	0.83948055	-0.66639051	1.61752977	0.98926507	-0.26536203	0.90834866	0.41665916	-0.25835233	0.34193031	-1.65016311	4.28541014	2.65748838	0.05896982	-0.10284092	-0.02852788
4999	49.98000000	-0.97776611	-0.21322763	-0.19297461	-0.64672781	-0.00864202	0.27017963	-1.43514014	-0.01989397	3.41532429	1.07195946	-0.64284964	1.51722612	0.83701488	-0.24009049	0.89110081	0.34942788	-0.24605269	0.36428899	-2.20817071	3.76855867	2.74639085	0.07102761	-0.09599007	-0.03702509
5000	49.99000000	-0.95846253	-0.18039057	-0.23401238	-0.55562750	-0.03085489	0.30688183	0.15674516	0.01300892	4.03712870	1.23799399	-0.61673671	1.33058113	0.53124601	-0.22354320	0.82029016	0.39731921	-0.26587301	0.43531278	-2.14748596	3.53579603	2.54272948	0.07863233	-0.10468248	-0.02524654
5001	50.00000000	-0.95166803	-0.17955889	-0.26181413	-0.46400869	-0.02029652	0.34103314	2.58304458	-0.09233700	4.53618173	1.34641219	-0.58860177	1.11912857	0.21870881	-0.15640843	0.72104802	0.55849712	-0.28473091	0.50676858	-1.96848905	3.81914819	2.43379241	0.05333888	-0.10424202	-0.00086561
5002	50.01000000	-0.96738664	-0.20008819	-0.26778668	-0.39261291	0.00364259	0.37106086	4.91577126	-0.15437076	4.48364661	1.42659367	-0.55726809	0.93911860	-0.02397207	-0.14311867	0.67729197	0.74317902	-0.31402088	0.54079571	-1.75686312	4.05075089	2.55737317	0.06553275	-0.09784248	0.02408162
5003	50.02000000	-0.99383791	-0.22431792	-0.27305279	-0.35559049	0.01523107	0.38689774	6.21434995	0.07973902	4.19203643	1.52441256	-0.51442755	0.78510011	-0.06135157	-0.17157698	0.63776064	0.81548761	-0.37262111	0.53287612	-1.61546845	3.87368460	2.90269707	0.01730584	-0.05387948	0.06711306
5004	50.03000000	-0.99732893	-0.24315537	-0.27675332	-0.34315425	-0.00964294	0.37657499	5.57378489	0.55881472	4.16744331	1.66943454	-0.44931697	0.70721978	0.06271850	-0.15653604	0.57035057	0.69198823	-0.42954430	0.52542462	-1.72847527	3.50098321	3.36929494	0.00946185	-0.06691983	0.11514724
5005	50.04000000	-0.97086578	-0.26533103	-0.27410014	-0.31771608	-0.06903633	0.34413319	3.64388522	0.95158005	4.31359835	1.84254031	-0.36645920	0.68606386	0.16957940	-0.14268890	0.51617036	0.40585735	-0.44499231	0.53802944	-1.60446896	3.33367225	3.66925410	-0.03734454	-0.06037698	0.15011000
5006	50.05000000	-0.93438224	-0.28864351	-0.27383715	-0.23758330	-0.12758469	0.29160818	1.98863468	1.08826155	4.29271630	1.91703340	-0.25716840	0.58488729	0.18132733	-0.15382393	0.47065967	0.05533495	-0.42715874	0.56164812	-1.27820668	3.40792695	3.60740366	-0.08339437	-0.03534918	0.16308131
5007	50.06000000	-0.88890289	-0.31947415	-0.25676109	-0.09405620	-0.15344362	0.23117941	0.69967016	1.13857411	4.26300930	1.83110406	-0.13629505	0.41009438	0.14931251	-0.20002685	0.45644474	-0.21979855	-0.39701383	0.57772356	-1.17539081	3.51217474	3.30562584	-0.01870136	-0.02660451	0.15312937
5008	50.07000000	-0.83850758	-0.34665100	-0.22468344	0.06550908	-0.14739213	0.18112396	-0.07655265	1.20921058	4.56472041	1.63891338	-0.00905998	0.21819713	0.07113755	-0.20747614	0.46400050	-0.34739335	-0.37186859	0.55473507	-1.43423904	3.52336504	2.95063084	-0.03362521	-0.01439110	0.14839036
5009	50.08000000	-0.79664523	-0.35809013	-0.20824130	0.20374855	-0.13944887	0.14837906	-0.17307206	1.21857597	4.95376481	1.36273527	0.09558141	0.03588428	-0.06607360	-0.17578792	0.44517080	-0.29949251	-0.36037766	0.54250691	-1.78964948	3.49525241	2.61954971	-0.00024960	-0.01054465	0.14323281
5010	50.09000000	-0.74107323	-0.35777251	-0.19512158	0.31422754	-0.14135901	0.14684692	-0.25083601	1.29577274	5.17816723	1.00548045	0.14680757	-0.13817775	-0.15884724	-0.19161879	0.41151810	-0.13247270	-0.35900543	0.53903788	-1.89953927	3.58994078	2.36117801	-0.00586071	-0.01603060	0.14428695
5011	50.10000000	-0.67304461	-0.35275813	-0.17754166	0.40371607	-0.14732612	0.17837728	-0.34909918	1.30219596	5.23722326	0.62533821	0.16494179	-0.30255508	-0.18803889	-0.20622913	0.42363094	0.09704522	-0.36833121	0.52767832	-1.79175507	3.76629289	2.19250942	-0.00500069	-0.00190499	0.17549963
5012	50.11000000	-0.57982762	-0.35047381	-0.15199283	0.48127377	-0.16091388	0.21061716	-0.12925877	0.98460891	5.04657250	0.27045847	0.17738742	-0.42728641	-0.14770315	-0.21904041	0.45893081	0.33849141	-0.39349266	0.50440836	-1.70401706	3.91531005	2.14182781	-0.02458754	0.03637728	0.22795157
5013	50.12000000	-0.49123713	-0.33099318	-0.12257073	0.55237360	-0.16192416	0.23191485	0.44226743	0.67036129	4.67987446	-0.07266792	0.20332203	-0.51185887	-0.11729960	-0.22962170	0.44563566	0.54377572	-0.41781925	0.49320805	-1.51710036	4.00922393	2.18642036	-0.07313986	0.03224277	0.28089244
5014	50.13000000	-0.40673942	-0.31253789	-0.10856209	0.58957316	-0.14099041	0.24684210	1.14004554	0.66715400	4.28537456	-0.36215133	0.26592655	-0.58504764	-0.12211775	-0.22458603	0.40885287	0.65782129	-0.41427640	0.49549928	-1.26680610	3.99371218	2.31931132	-0.10787237	0.04921471	0.34644273
5015	50.14000000	-0.33182961	-0.30950950	-0.07111922	0.59051903	-0.11698952	0.24542690	1.72371496	0.92554464	3.98574868	-0.54723147	0.36218134	-0.66247976	-0.13611222	-0.25208204	0.43135984	0.64035141	-0.39671938	0.50073526	-0.96917481	3.93303250	2.59848003	-0.10078270	0.05747500	0.37387125
5016	50.15000000	-0.25920165	-0.28939239	-0.02077665	0.56030351	-0.07936781	0.23744121	2.23097522	1.27952546	3.80576108	-0.64708590	0.46896552	-0.72213064	-0.14070463	-0.29016095	0.48811190	0.56475575	-0.37756336	0.52417151	-0.41905545	3.97725205	3.04133705	-0.09836266	0.05065410	0.33949761
5017	50.16000000	-0.17970479	-0.25703624	0.01686326	0.50630556	-0.01985984	0.22064912	2.69431950	1.46394119	3.64520061	-0.70408707	0.55115973	-0.74513124	-0.10934327	-0.26995124	0.52715345	0.49484708	-0.34586271	0.54478307	0.09211966	3.82662980	3.54875023	-0.04992267	-0.00369286	0.27940300
5018	50.17000000	-0.10291779	-0.20673070	0.04117511	0.45015002	0.04627474	0.20196323	2.83732284	1.40602852	3.50761641	-0.70903700	0.60392416	-0.72745979	-0.05278626	-0.21767083	0.55051856	0.45619525	-0.31060751	0.55911967	0.48769856	3.48990843	3.99583252	-0.00020484	-0.03191446	0.23847038
5019	50.18000000	-0.04375514	-0.16222464	0.06389443	0.39920273	0.10072687	0.17997659	2.69553792	1.31012857	3.38158647	-0.64565181	0.65278389	-0.68980341	-0.05477386	-0.22087470	0.58999799	0.44523142	-0.29066512	0.56347392	0.83814159	3.25826388	4.32539298	-0.02800052	-0.05397304	0.17902413
5020	50.19000000	0.00897830	-0.12226691	0.09866662	0.34517040	0.13388645	0.16332798	2.65008626	1.29345615	3.15254237	-0.50377440	0.70583594	-0.64527804	-0.06288825	-0.22011724	0.66462797	0.42711713	-0.27245041	0.54460569	1.11910404	3.12052635	4.53019129	0.05499378	-0.10647910	0.09888100
5021	50.20000000	0.03898756	-0.07910847	0.11151954	0.28151414	0.14047390	0.16770200	2.76601600	1.30064998	2.85287113	-0.33425560	0.73258004	-0.59417591	-0.04789422	-0.19067850	0.75437029	0.42660767	-0.26019255	0.52941042	1.23325396	2.85752312	4.57250082	0.11643648	-0.14728744	0.06231745
5022	50.21000000	0.06402276	-0.03951978	0.13180544	0.19932691	0.14121466	0.18833479	2.70805842	1.26616587	2.57230372	-0.23416699	0.71666243	-0.55037810	-0.00171105	-0.18375794	0.78909410	0.43511200	-0.25517567	0.51432159	1.22965922	2.50709458	4.46000206	0.08139437	-0.18939741	0.05371262
5023	50.22000000	0.07890963	0.00300520	0.14475855	0.10831027	0.13742796	0.21843036	2.42259570	1.15623068	2.32232657	-0.25721266	0.63600575	-0.53589647	0.03517263	-0.17386850	0.81119635	0.44502065	-0.24221309	0.51597237	1.05950916	2.14946856	4.25566129	0.10331035	-0.21650792	0.03716365
5024	50.23000000	0.06994858	0.04186059	0.14605788	0.01179256	0.12602950	0.26176042	2.14747004	1.04637904	1.99786288	-0.35952443	0.51672210	-0.56004176	0.03187512	-0.17376036	0.90752058	0.43710271	-0.22892389	0.52056646	0.41163661	1.74547830	3.92965679	0.13347255	-0.22359289	0.00989524
